<?xml version="1.0" encoding="UTF-8" standalone="no"?>
<!-- Created with Inkscape (http://www.inkscape.org/) -->

<svg
   xmlns:dc="http://purl.org/dc/elements/1.1/"
   xmlns:cc="http://creativecommons.org/ns#"
   xmlns:rdf="http://www.w3.org/1999/02/22-rdf-syntax-ns#"
   xmlns:svg="http://www.w3.org/2000/svg"
   xmlns="http://www.w3.org/2000/svg"
   xmlns:sodipodi="http://sodipodi.sourceforge.net/DTD/sodipodi-0.dtd"
   xmlns:inkscape="http://www.inkscape.org/namespaces/inkscape"
   width="744.09448819"
   height="1052.3622047"
   id="svg2"
   version="1.1"
   inkscape:version="0.48.2 r9819"
   sodipodi:docname="concept art.svg"
   inkscape:export-filename="C:\Users\Ajay\Downloads\eclipse-jee-juno-SR1-win32-x86_64\projects\Ludum Dare\LD38\src\res\red.png"
   inkscape:export-xdpi="65.566162"
   inkscape:export-ydpi="65.566162">
  <defs
     id="defs4">
    <filter
       inkscape:collect="always"
       id="filter3951">
      <feGaussianBlur
         inkscape:collect="always"
         stdDeviation="4.6909937"
         id="feGaussianBlur3953" />
    </filter>
    <filter
       inkscape:collect="always"
       id="filter3955">
      <feGaussianBlur
         inkscape:collect="always"
         stdDeviation="4.6909937"
         id="feGaussianBlur3957" />
    </filter>
    <filter
       inkscape:collect="always"
       id="filter4027"
       x="-0.15949379"
       width="1.3189876"
       y="-0.20299209"
       height="1.4059842">
      <feGaussianBlur
         inkscape:collect="always"
         stdDeviation="13.291149"
         id="feGaussianBlur4029" />
    </filter>
    <filter
       inkscape:collect="always"
       id="filter4031"
       x="-0.15949379"
       width="1.3189876"
       y="-0.21678767"
       height="1.4335753">
      <feGaussianBlur
         inkscape:collect="always"
         stdDeviation="13.291149"
         id="feGaussianBlur4033" />
    </filter>
    <filter
       inkscape:collect="always"
       id="filter4119"
       x="-0.1267826"
       width="1.2535652"
       y="-0.17232586"
       height="1.3446517">
      <feGaussianBlur
         inkscape:collect="always"
         stdDeviation="10.565216"
         id="feGaussianBlur4121" />
    </filter>
    <filter
       inkscape:collect="always"
       id="filter4123"
       x="-0.16343479"
       width="1.3268696"
       y="-0.20800791"
       height="1.4160158">
      <feGaussianBlur
         inkscape:collect="always"
         stdDeviation="13.619565"
         id="feGaussianBlur4125" />
    </filter>
    <filter
       inkscape:collect="always"
       id="filter4221"
       x="-0.10724322"
       width="1.2144864"
       y="-0.13620141"
       height="1.2724028">
      <feGaussianBlur
         inkscape:collect="always"
         stdDeviation="8.8092645"
         id="feGaussianBlur4223" />
    </filter>
  </defs>
  <sodipodi:namedview
     id="base"
     pagecolor="#ffffff"
     bordercolor="#666666"
     borderopacity="1.0"
     inkscape:pageopacity="0.0"
     inkscape:pageshadow="2"
     inkscape:zoom="0.90606884"
     inkscape:cx="439.10731"
     inkscape:cy="801.30657"
     inkscape:document-units="px"
     inkscape:current-layer="layer1"
     showgrid="false"
     inkscape:window-width="1366"
     inkscape:window-height="709"
     inkscape:window-x="-8"
     inkscape:window-y="760"
     inkscape:window-maximized="1" />
  <metadata
     id="metadata7">
    <rdf:RDF>
      <cc:Work
         rdf:about="">
        <dc:format>image/svg+xml</dc:format>
        <dc:type
           rdf:resource="http://purl.org/dc/dcmitype/StillImage" />
        <dc:title></dc:title>
      </cc:Work>
    </rdf:RDF>
  </metadata>
  <g
     inkscape:label="Layer 1"
     inkscape:groupmode="layer"
     id="layer1">
    <rect
       style="fill:#00ced4;fill-opacity:1;stroke:none"
       id="rect2987"
       width="669.28571"
       height="377.30356"
       x="49.285713"
       y="153.64609"
       inkscape:export-filename="C:\Users\Ajay\Downloads\eclipse-jee-juno-SR1-win32-x86_64\projects\Ludum Dare\LD38\src\res\background.png"
       inkscape:export-xdpi="143.07791"
       inkscape:export-ydpi="143.07791" />
    <g
       id="g4051"
       transform="matrix(0.85539754,0,0,0.85539754,-69.960376,131.29513)"
       inkscape:export-filename="C:\Users\Ajay\Downloads\eclipse-jee-juno-SR1-win32-x86_64\projects\Ludum Dare\LD38\src\res\background0.png"
       inkscape:export-xdpi="143.08"
       inkscape:export-ydpi="143.08">
      <g
         style="fill:#000000;fill-opacity:1;filter:url(#filter4123)"
         id="g3899"
         transform="matrix(0.69026548,0,0,0.69026548,131.6024,140.08058)">
        <path
           sodipodi:type="arc"
           style="fill:#000000;fill-opacity:1;stroke:none"
           id="path3901"
           sodipodi:cx="200.71428"
           sodipodi:cy="290.93362"
           sodipodi:rx="98.571426"
           sodipodi:ry="38.57143"
           d="m 299.28571,290.93362 c 0,21.30242 -44.13194,38.57143 -98.57143,38.57143 -54.4395,0 -98.57143,-17.26901 -98.57143,-38.57143 0,-21.30241 44.13193,-38.57143 98.57143,-38.57143 54.43949,0 98.57143,17.26902 98.57143,38.57143 z" />
        <path
           sodipodi:type="arc"
           style="fill:#000000;fill-opacity:1;stroke:none"
           id="path3903"
           sodipodi:cx="208.21428"
           sodipodi:cy="273.43362"
           sodipodi:rx="43.92857"
           sodipodi:ry="44.642857"
           d="m 252.14285,273.43362 c 0,24.65557 -19.66749,44.64286 -43.92857,44.64286 -24.26108,0 -43.92857,-19.98729 -43.92857,-44.64286 0,-24.65556 19.66749,-44.64285 43.92857,-44.64285 24.26108,0 43.92857,19.98729 43.92857,44.64285 z"
           transform="translate(-11.428571,-2.8571429)" />
        <path
           transform="translate(-47.142857,33.571429)"
           d="m 252.14285,273.43362 c 0,24.65557 -19.66749,44.64286 -43.92857,44.64286 -24.26108,0 -43.92857,-19.98729 -43.92857,-44.64286 0,-24.65556 19.66749,-44.64285 43.92857,-44.64285 24.26108,0 43.92857,19.98729 43.92857,44.64285 z"
           sodipodi:ry="44.642857"
           sodipodi:rx="43.92857"
           sodipodi:cy="273.43362"
           sodipodi:cx="208.21428"
           id="path3905"
           style="fill:#000000;fill-opacity:1;stroke:none"
           sodipodi:type="arc" />
        <path
           sodipodi:type="arc"
           style="fill:#000000;fill-opacity:1;stroke:none"
           id="path3907"
           sodipodi:cx="208.21428"
           sodipodi:cy="273.43362"
           sodipodi:rx="43.92857"
           sodipodi:ry="44.642857"
           d="m 252.14285,273.43362 c 0,24.65557 -19.66749,44.64286 -43.92857,44.64286 -24.26108,0 -43.92857,-19.98729 -43.92857,-44.64286 0,-24.65556 19.66749,-44.64285 43.92857,-44.64285 24.26108,0 43.92857,19.98729 43.92857,44.64285 z"
           transform="translate(-4.9999998,65)" />
        <path
           transform="translate(50,60)"
           d="m 252.14285,273.43362 c 0,24.65557 -19.66749,44.64286 -43.92857,44.64286 -24.26108,0 -43.92857,-19.98729 -43.92857,-44.64286 0,-24.65556 19.66749,-44.64285 43.92857,-44.64285 24.26108,0 43.92857,19.98729 43.92857,44.64285 z"
           sodipodi:ry="44.642857"
           sodipodi:rx="43.92857"
           sodipodi:cy="273.43362"
           sodipodi:cx="208.21428"
           id="path3909"
           style="fill:#000000;fill-opacity:1;stroke:none"
           sodipodi:type="arc" />
        <path
           sodipodi:type="arc"
           style="fill:#000000;fill-opacity:1;stroke:none"
           id="path3911"
           sodipodi:cx="208.21428"
           sodipodi:cy="273.43362"
           sodipodi:rx="43.92857"
           sodipodi:ry="44.642857"
           d="m 252.14285,273.43362 c 0,24.65557 -19.66749,44.64286 -43.92857,44.64286 -24.26108,0 -43.92857,-19.98729 -43.92857,-44.64286 0,-24.65556 19.66749,-44.64285 43.92857,-44.64285 24.26108,0 43.92857,19.98729 43.92857,44.64285 z"
           transform="translate(48.571429,6.4285714)" />
      </g>
      <g
         transform="matrix(0.69026548,0,0,0.69026548,131.6024,140.08058)"
         id="g3795">
        <path
           d="m 299.28571,290.93362 c 0,21.30242 -44.13194,38.57143 -98.57143,38.57143 -54.4395,0 -98.57143,-17.26901 -98.57143,-38.57143 0,-21.30241 44.13193,-38.57143 98.57143,-38.57143 54.43949,0 98.57143,17.26902 98.57143,38.57143 z"
           sodipodi:ry="38.57143"
           sodipodi:rx="98.571426"
           sodipodi:cy="290.93362"
           sodipodi:cx="200.71428"
           id="path3797"
           style="fill:#ffffff;fill-opacity:1;stroke:none"
           sodipodi:type="arc" />
        <path
           transform="translate(-11.428571,-2.8571429)"
           d="m 252.14285,273.43362 c 0,24.65557 -19.66749,44.64286 -43.92857,44.64286 -24.26108,0 -43.92857,-19.98729 -43.92857,-44.64286 0,-24.65556 19.66749,-44.64285 43.92857,-44.64285 24.26108,0 43.92857,19.98729 43.92857,44.64285 z"
           sodipodi:ry="44.642857"
           sodipodi:rx="43.92857"
           sodipodi:cy="273.43362"
           sodipodi:cx="208.21428"
           id="path3799"
           style="fill:#ffffff;fill-opacity:1;stroke:none"
           sodipodi:type="arc" />
        <path
           sodipodi:type="arc"
           style="fill:#ffffff;fill-opacity:1;stroke:none"
           id="path3801"
           sodipodi:cx="208.21428"
           sodipodi:cy="273.43362"
           sodipodi:rx="43.92857"
           sodipodi:ry="44.642857"
           d="m 252.14285,273.43362 c 0,24.65557 -19.66749,44.64286 -43.92857,44.64286 -24.26108,0 -43.92857,-19.98729 -43.92857,-44.64286 0,-24.65556 19.66749,-44.64285 43.92857,-44.64285 24.26108,0 43.92857,19.98729 43.92857,44.64285 z"
           transform="translate(-47.142857,33.571429)" />
        <path
           transform="translate(-4.9999998,65)"
           d="m 252.14285,273.43362 c 0,24.65557 -19.66749,44.64286 -43.92857,44.64286 -24.26108,0 -43.92857,-19.98729 -43.92857,-44.64286 0,-24.65556 19.66749,-44.64285 43.92857,-44.64285 24.26108,0 43.92857,19.98729 43.92857,44.64285 z"
           sodipodi:ry="44.642857"
           sodipodi:rx="43.92857"
           sodipodi:cy="273.43362"
           sodipodi:cx="208.21428"
           id="path3803"
           style="fill:#ffffff;fill-opacity:1;stroke:none"
           sodipodi:type="arc" />
        <path
           sodipodi:type="arc"
           style="fill:#ffffff;fill-opacity:1;stroke:none"
           id="path3805"
           sodipodi:cx="208.21428"
           sodipodi:cy="273.43362"
           sodipodi:rx="43.92857"
           sodipodi:ry="44.642857"
           d="m 252.14285,273.43362 c 0,24.65557 -19.66749,44.64286 -43.92857,44.64286 -24.26108,0 -43.92857,-19.98729 -43.92857,-44.64286 0,-24.65556 19.66749,-44.64285 43.92857,-44.64285 24.26108,0 43.92857,19.98729 43.92857,44.64285 z"
           transform="translate(50,60)" />
        <path
           transform="translate(48.571429,6.4285714)"
           d="m 252.14285,273.43362 c 0,24.65557 -19.66749,44.64286 -43.92857,44.64286 -24.26108,0 -43.92857,-19.98729 -43.92857,-44.64286 0,-24.65556 19.66749,-44.64285 43.92857,-44.64285 24.26108,0 43.92857,19.98729 43.92857,44.64285 z"
           sodipodi:ry="44.642857"
           sodipodi:rx="43.92857"
           sodipodi:cy="273.43362"
           sodipodi:cx="208.21428"
           id="path3807"
           style="fill:#ffffff;fill-opacity:1;stroke:none"
           sodipodi:type="arc" />
      </g>
    </g>
    <g
       id="g4035"
       transform="matrix(1.1454609,0,0,1.1454609,35.058888,-49.700949)"
       inkscape:export-filename="C:\Users\Ajay\Downloads\eclipse-jee-juno-SR1-win32-x86_64\projects\Ludum Dare\LD38\src\res\background0.png"
       inkscape:export-xdpi="143.08"
       inkscape:export-ydpi="143.08">
      <g
         style="fill:#000000;fill-opacity:1;filter:url(#filter4119)"
         transform="matrix(0.69026548,0,0,0.69026548,378.61883,137.1223)"
         id="g3913">
        <path
           d="m 299.28571,290.93362 c 0,21.30242 -44.13194,38.57143 -98.57143,38.57143 -54.4395,0 -98.57143,-17.26901 -98.57143,-38.57143 0,-21.30241 44.13193,-38.57143 98.57143,-38.57143 54.43949,0 98.57143,17.26902 98.57143,38.57143 z"
           sodipodi:ry="38.57143"
           sodipodi:rx="98.571426"
           sodipodi:cy="290.93362"
           sodipodi:cx="200.71428"
           id="path3915"
           style="fill:#000000;fill-opacity:1;stroke:none"
           sodipodi:type="arc" />
        <path
           transform="translate(-11.428571,-2.8571429)"
           d="m 252.14285,273.43362 c 0,24.65557 -19.66749,44.64286 -43.92857,44.64286 -24.26108,0 -43.92857,-19.98729 -43.92857,-44.64286 0,-24.65556 19.66749,-44.64285 43.92857,-44.64285 24.26108,0 43.92857,19.98729 43.92857,44.64285 z"
           sodipodi:ry="44.642857"
           sodipodi:rx="43.92857"
           sodipodi:cy="273.43362"
           sodipodi:cx="208.21428"
           id="path3917"
           style="fill:#000000;fill-opacity:1;stroke:none"
           sodipodi:type="arc" />
        <path
           sodipodi:type="arc"
           style="fill:#000000;fill-opacity:1;stroke:none"
           id="path3919"
           sodipodi:cx="208.21428"
           sodipodi:cy="273.43362"
           sodipodi:rx="43.92857"
           sodipodi:ry="44.642857"
           d="m 252.14285,273.43362 c 0,24.65557 -19.66749,44.64286 -43.92857,44.64286 -24.26108,0 -43.92857,-19.98729 -43.92857,-44.64286 0,-24.65556 19.66749,-44.64285 43.92857,-44.64285 24.26108,0 43.92857,19.98729 43.92857,44.64285 z"
           transform="translate(-47.142857,33.571429)" />
        <path
           transform="translate(-5.7142855,55)"
           d="m 252.14285,273.43362 c 0,24.65557 -19.66749,44.64286 -43.92857,44.64286 -24.26108,0 -43.92857,-19.98729 -43.92857,-44.64286 0,-24.65556 19.66749,-44.64285 43.92857,-44.64285 24.26108,0 43.92857,19.98729 43.92857,44.64285 z"
           sodipodi:ry="44.642857"
           sodipodi:rx="43.92857"
           sodipodi:cy="273.43362"
           sodipodi:cx="208.21428"
           id="path3921"
           style="fill:#000000;fill-opacity:1;stroke:none"
           sodipodi:type="arc" />
        <path
           sodipodi:type="arc"
           style="fill:#000000;fill-opacity:1;stroke:none"
           id="path3923"
           sodipodi:cx="208.21428"
           sodipodi:cy="273.43362"
           sodipodi:rx="43.92857"
           sodipodi:ry="44.642857"
           d="m 252.14285,273.43362 c 0,24.65557 -19.66749,44.64286 -43.92857,44.64286 -24.26108,0 -43.92857,-19.98729 -43.92857,-44.64286 0,-24.65556 19.66749,-44.64285 43.92857,-44.64285 24.26108,0 43.92857,19.98729 43.92857,44.64285 z"
           transform="translate(50,28.571429)" />
        <path
           transform="translate(-58.571428,5)"
           d="m 252.14285,273.43362 c 0,24.65557 -19.66749,44.64286 -43.92857,44.64286 -24.26108,0 -43.92857,-19.98729 -43.92857,-44.64286 0,-24.65556 19.66749,-44.64285 43.92857,-44.64285 24.26108,0 43.92857,19.98729 43.92857,44.64285 z"
           sodipodi:ry="44.642857"
           sodipodi:rx="43.92857"
           sodipodi:cy="273.43362"
           sodipodi:cx="208.21428"
           id="path3925"
           style="fill:#000000;fill-opacity:1;stroke:none"
           sodipodi:type="arc" />
      </g>
      <g
         id="g3809"
         transform="matrix(0.69026548,0,0,0.69026548,378.61883,137.1223)">
        <path
           sodipodi:type="arc"
           style="fill:#ffffff;fill-opacity:1;stroke:none"
           id="path3811"
           sodipodi:cx="200.71428"
           sodipodi:cy="290.93362"
           sodipodi:rx="98.571426"
           sodipodi:ry="38.57143"
           d="m 299.28571,290.93362 c 0,21.30242 -44.13194,38.57143 -98.57143,38.57143 -54.4395,0 -98.57143,-17.26901 -98.57143,-38.57143 0,-21.30241 44.13193,-38.57143 98.57143,-38.57143 54.43949,0 98.57143,17.26902 98.57143,38.57143 z" />
        <path
           sodipodi:type="arc"
           style="fill:#ffffff;fill-opacity:1;stroke:none"
           id="path3813"
           sodipodi:cx="208.21428"
           sodipodi:cy="273.43362"
           sodipodi:rx="43.92857"
           sodipodi:ry="44.642857"
           d="m 252.14285,273.43362 c 0,24.65557 -19.66749,44.64286 -43.92857,44.64286 -24.26108,0 -43.92857,-19.98729 -43.92857,-44.64286 0,-24.65556 19.66749,-44.64285 43.92857,-44.64285 24.26108,0 43.92857,19.98729 43.92857,44.64285 z"
           transform="translate(-11.428571,-2.8571429)" />
        <path
           transform="translate(-47.142857,33.571429)"
           d="m 252.14285,273.43362 c 0,24.65557 -19.66749,44.64286 -43.92857,44.64286 -24.26108,0 -43.92857,-19.98729 -43.92857,-44.64286 0,-24.65556 19.66749,-44.64285 43.92857,-44.64285 24.26108,0 43.92857,19.98729 43.92857,44.64285 z"
           sodipodi:ry="44.642857"
           sodipodi:rx="43.92857"
           sodipodi:cy="273.43362"
           sodipodi:cx="208.21428"
           id="path3815"
           style="fill:#ffffff;fill-opacity:1;stroke:none"
           sodipodi:type="arc" />
        <path
           sodipodi:type="arc"
           style="fill:#ffffff;fill-opacity:1;stroke:none"
           id="path3817"
           sodipodi:cx="208.21428"
           sodipodi:cy="273.43362"
           sodipodi:rx="43.92857"
           sodipodi:ry="44.642857"
           d="m 252.14285,273.43362 c 0,24.65557 -19.66749,44.64286 -43.92857,44.64286 -24.26108,0 -43.92857,-19.98729 -43.92857,-44.64286 0,-24.65556 19.66749,-44.64285 43.92857,-44.64285 24.26108,0 43.92857,19.98729 43.92857,44.64285 z"
           transform="translate(-5.7142855,55)" />
        <path
           transform="translate(50,28.571429)"
           d="m 252.14285,273.43362 c 0,24.65557 -19.66749,44.64286 -43.92857,44.64286 -24.26108,0 -43.92857,-19.98729 -43.92857,-44.64286 0,-24.65556 19.66749,-44.64285 43.92857,-44.64285 24.26108,0 43.92857,19.98729 43.92857,44.64285 z"
           sodipodi:ry="44.642857"
           sodipodi:rx="43.92857"
           sodipodi:cy="273.43362"
           sodipodi:cx="208.21428"
           id="path3819"
           style="fill:#ffffff;fill-opacity:1;stroke:none"
           sodipodi:type="arc" />
        <path
           sodipodi:type="arc"
           style="fill:#ffffff;fill-opacity:1;stroke:none"
           id="path3821"
           sodipodi:cx="208.21428"
           sodipodi:cy="273.43362"
           sodipodi:rx="43.92857"
           sodipodi:ry="44.642857"
           d="m 252.14285,273.43362 c 0,24.65557 -19.66749,44.64286 -43.92857,44.64286 -24.26108,0 -43.92857,-19.98729 -43.92857,-44.64286 0,-24.65556 19.66749,-44.64285 43.92857,-44.64285 24.26108,0 43.92857,19.98729 43.92857,44.64285 z"
           transform="translate(-58.571428,5)" />
      </g>
    </g>
    <rect
       style="fill:#ff0000;fill-opacity:1;stroke:none"
       id="rect4101"
       width="87.850189"
       height="87.850189"
       x="299.72415"
       y="536.45764"
       inkscape:export-filename="C:\Users\Ajay\Downloads\eclipse-jee-juno-SR1-win32-x86_64\projects\Ludum Dare\LD38\src\res\block0.png"
       inkscape:export-xdpi="65.566162"
       inkscape:export-ydpi="65.566162" />
    <g
       transform="matrix(1.2909217,0,0,1.2909217,-259.62762,-175.93959)"
       id="g4127"
       inkscape:export-filename="C:\Users\Ajay\Downloads\eclipse-jee-juno-SR1-win32-x86_64\projects\Ludum Dare\LD38\src\res\background0.png"
       inkscape:export-xdpi="143.08"
       inkscape:export-ydpi="143.08">
      <g
         id="g4129"
         transform="matrix(0.69026548,0,0,0.69026548,378.61883,137.1223)"
         style="fill:#000000;fill-opacity:1;filter:url(#filter4119)">
        <path
           sodipodi:type="arc"
           style="fill:#000000;fill-opacity:1;stroke:none"
           id="path4131"
           sodipodi:cx="200.71428"
           sodipodi:cy="290.93362"
           sodipodi:rx="98.571426"
           sodipodi:ry="38.57143"
           d="m 299.28571,290.93362 c 0,21.30242 -44.13194,38.57143 -98.57143,38.57143 -54.4395,0 -98.57143,-17.26901 -98.57143,-38.57143 0,-21.30241 44.13193,-38.57143 98.57143,-38.57143 54.43949,0 98.57143,17.26902 98.57143,38.57143 z" />
        <path
           sodipodi:type="arc"
           style="fill:#000000;fill-opacity:1;stroke:none"
           id="path4133"
           sodipodi:cx="208.21428"
           sodipodi:cy="273.43362"
           sodipodi:rx="43.92857"
           sodipodi:ry="44.642857"
           d="m 252.14285,273.43362 c 0,24.65557 -19.66749,44.64286 -43.92857,44.64286 -24.26108,0 -43.92857,-19.98729 -43.92857,-44.64286 0,-24.65556 19.66749,-44.64285 43.92857,-44.64285 24.26108,0 43.92857,19.98729 43.92857,44.64285 z"
           transform="translate(-11.428571,-2.8571429)" />
        <path
           transform="translate(-47.142857,33.571429)"
           d="m 252.14285,273.43362 c 0,24.65557 -19.66749,44.64286 -43.92857,44.64286 -24.26108,0 -43.92857,-19.98729 -43.92857,-44.64286 0,-24.65556 19.66749,-44.64285 43.92857,-44.64285 24.26108,0 43.92857,19.98729 43.92857,44.64285 z"
           sodipodi:ry="44.642857"
           sodipodi:rx="43.92857"
           sodipodi:cy="273.43362"
           sodipodi:cx="208.21428"
           id="path4135"
           style="fill:#000000;fill-opacity:1;stroke:none"
           sodipodi:type="arc" />
        <path
           sodipodi:type="arc"
           style="fill:#000000;fill-opacity:1;stroke:none"
           id="path4137"
           sodipodi:cx="208.21428"
           sodipodi:cy="273.43362"
           sodipodi:rx="43.92857"
           sodipodi:ry="44.642857"
           d="m 252.14285,273.43362 c 0,24.65557 -19.66749,44.64286 -43.92857,44.64286 -24.26108,0 -43.92857,-19.98729 -43.92857,-44.64286 0,-24.65556 19.66749,-44.64285 43.92857,-44.64285 24.26108,0 43.92857,19.98729 43.92857,44.64285 z"
           transform="translate(-5.7142855,55)" />
        <path
           transform="translate(50,28.571429)"
           d="m 252.14285,273.43362 c 0,24.65557 -19.66749,44.64286 -43.92857,44.64286 -24.26108,0 -43.92857,-19.98729 -43.92857,-44.64286 0,-24.65556 19.66749,-44.64285 43.92857,-44.64285 24.26108,0 43.92857,19.98729 43.92857,44.64285 z"
           sodipodi:ry="44.642857"
           sodipodi:rx="43.92857"
           sodipodi:cy="273.43362"
           sodipodi:cx="208.21428"
           id="path4139"
           style="fill:#000000;fill-opacity:1;stroke:none"
           sodipodi:type="arc" />
        <path
           sodipodi:type="arc"
           style="fill:#000000;fill-opacity:1;stroke:none"
           id="path4141"
           sodipodi:cx="208.21428"
           sodipodi:cy="273.43362"
           sodipodi:rx="43.92857"
           sodipodi:ry="44.642857"
           d="m 252.14285,273.43362 c 0,24.65557 -19.66749,44.64286 -43.92857,44.64286 -24.26108,0 -43.92857,-19.98729 -43.92857,-44.64286 0,-24.65556 19.66749,-44.64285 43.92857,-44.64285 24.26108,0 43.92857,19.98729 43.92857,44.64285 z"
           transform="translate(-58.571428,5)" />
      </g>
      <g
         transform="matrix(0.69026548,0,0,0.69026548,378.61883,137.1223)"
         id="g4143">
        <path
           d="m 299.28571,290.93362 c 0,21.30242 -44.13194,38.57143 -98.57143,38.57143 -54.4395,0 -98.57143,-17.26901 -98.57143,-38.57143 0,-21.30241 44.13193,-38.57143 98.57143,-38.57143 54.43949,0 98.57143,17.26902 98.57143,38.57143 z"
           sodipodi:ry="38.57143"
           sodipodi:rx="98.571426"
           sodipodi:cy="290.93362"
           sodipodi:cx="200.71428"
           id="path4145"
           style="fill:#ffffff;fill-opacity:1;stroke:none"
           sodipodi:type="arc" />
        <path
           transform="translate(-11.428571,-2.8571429)"
           d="m 252.14285,273.43362 c 0,24.65557 -19.66749,44.64286 -43.92857,44.64286 -24.26108,0 -43.92857,-19.98729 -43.92857,-44.64286 0,-24.65556 19.66749,-44.64285 43.92857,-44.64285 24.26108,0 43.92857,19.98729 43.92857,44.64285 z"
           sodipodi:ry="44.642857"
           sodipodi:rx="43.92857"
           sodipodi:cy="273.43362"
           sodipodi:cx="208.21428"
           id="path4147"
           style="fill:#ffffff;fill-opacity:1;stroke:none"
           sodipodi:type="arc" />
        <path
           sodipodi:type="arc"
           style="fill:#ffffff;fill-opacity:1;stroke:none"
           id="path4149"
           sodipodi:cx="208.21428"
           sodipodi:cy="273.43362"
           sodipodi:rx="43.92857"
           sodipodi:ry="44.642857"
           d="m 252.14285,273.43362 c 0,24.65557 -19.66749,44.64286 -43.92857,44.64286 -24.26108,0 -43.92857,-19.98729 -43.92857,-44.64286 0,-24.65556 19.66749,-44.64285 43.92857,-44.64285 24.26108,0 43.92857,19.98729 43.92857,44.64285 z"
           transform="translate(-47.142857,33.571429)" />
        <path
           transform="translate(-5.7142855,55)"
           d="m 252.14285,273.43362 c 0,24.65557 -19.66749,44.64286 -43.92857,44.64286 -24.26108,0 -43.92857,-19.98729 -43.92857,-44.64286 0,-24.65556 19.66749,-44.64285 43.92857,-44.64285 24.26108,0 43.92857,19.98729 43.92857,44.64285 z"
           sodipodi:ry="44.642857"
           sodipodi:rx="43.92857"
           sodipodi:cy="273.43362"
           sodipodi:cx="208.21428"
           id="path4151"
           style="fill:#ffffff;fill-opacity:1;stroke:none"
           sodipodi:type="arc" />
        <path
           sodipodi:type="arc"
           style="fill:#ffffff;fill-opacity:1;stroke:none"
           id="path4153"
           sodipodi:cx="208.21428"
           sodipodi:cy="273.43362"
           sodipodi:rx="43.92857"
           sodipodi:ry="44.642857"
           d="m 252.14285,273.43362 c 0,24.65557 -19.66749,44.64286 -43.92857,44.64286 -24.26108,0 -43.92857,-19.98729 -43.92857,-44.64286 0,-24.65556 19.66749,-44.64285 43.92857,-44.64285 24.26108,0 43.92857,19.98729 43.92857,44.64285 z"
           transform="translate(50,28.571429)" />
        <path
           transform="translate(-58.571428,5)"
           d="m 252.14285,273.43362 c 0,24.65557 -19.66749,44.64286 -43.92857,44.64286 -24.26108,0 -43.92857,-19.98729 -43.92857,-44.64286 0,-24.65556 19.66749,-44.64285 43.92857,-44.64285 24.26108,0 43.92857,19.98729 43.92857,44.64285 z"
           sodipodi:ry="44.642857"
           sodipodi:rx="43.92857"
           sodipodi:cy="273.43362"
           sodipodi:cx="208.21428"
           id="path4155"
           style="fill:#ffffff;fill-opacity:1;stroke:none"
           sodipodi:type="arc" />
      </g>
    </g>
    <g
       id="g4067"
       transform="matrix(1.1958949,0,0,1.1958949,-60.96855,-85.058636)"
       inkscape:export-filename="C:\Users\Ajay\Downloads\eclipse-jee-juno-SR1-win32-x86_64\projects\Ludum Dare\LD38\src\res\background1.png"
       inkscape:export-xdpi="143.08"
       inkscape:export-ydpi="143.08">
      <g
         style="fill:#000000;fill-opacity:1;filter:url(#filter4027)"
         id="g3959">
        <path
           d="m 299.28571,290.93362 c 0,21.30242 -44.13194,38.57143 -98.57143,38.57143 -54.4395,0 -98.57143,-17.26901 -98.57143,-38.57143 0,-21.30241 44.13193,-38.57143 98.57143,-38.57143 54.43949,0 98.57143,17.26902 98.57143,38.57143 z"
           sodipodi:ry="38.57143"
           sodipodi:rx="98.571426"
           sodipodi:cy="290.93362"
           sodipodi:cx="200.71428"
           id="path3961"
           style="fill:#000000;fill-opacity:1;stroke:none"
           sodipodi:type="arc" />
        <path
           transform="translate(-11.428571,-2.8571429)"
           d="m 252.14285,273.43362 c 0,24.65557 -19.66749,44.64286 -43.92857,44.64286 -24.26108,0 -43.92857,-19.98729 -43.92857,-44.64286 0,-24.65556 19.66749,-44.64285 43.92857,-44.64285 24.26108,0 43.92857,19.98729 43.92857,44.64285 z"
           sodipodi:ry="44.642857"
           sodipodi:rx="43.92857"
           sodipodi:cy="273.43362"
           sodipodi:cx="208.21428"
           id="path3963"
           style="fill:#000000;fill-opacity:1;stroke:none"
           sodipodi:type="arc" />
        <path
           sodipodi:type="arc"
           style="fill:#000000;fill-opacity:1;stroke:none"
           id="path3965"
           sodipodi:cx="208.21428"
           sodipodi:cy="273.43362"
           sodipodi:rx="43.92857"
           sodipodi:ry="44.642857"
           d="m 252.14285,273.43362 c 0,24.65557 -19.66749,44.64286 -43.92857,44.64286 -24.26108,0 -43.92857,-19.98729 -43.92857,-44.64286 0,-24.65556 19.66749,-44.64285 43.92857,-44.64285 24.26108,0 43.92857,19.98729 43.92857,44.64285 z"
           transform="translate(-47.142857,33.571429)" />
        <path
           transform="translate(-4.9999998,65)"
           d="m 252.14285,273.43362 c 0,24.65557 -19.66749,44.64286 -43.92857,44.64286 -24.26108,0 -43.92857,-19.98729 -43.92857,-44.64286 0,-24.65556 19.66749,-44.64285 43.92857,-44.64285 24.26108,0 43.92857,19.98729 43.92857,44.64285 z"
           sodipodi:ry="44.642857"
           sodipodi:rx="43.92857"
           sodipodi:cy="273.43362"
           sodipodi:cx="208.21428"
           id="path3967"
           style="fill:#000000;fill-opacity:1;stroke:none"
           sodipodi:type="arc" />
        <path
           sodipodi:type="arc"
           style="fill:#000000;fill-opacity:1;stroke:none"
           id="path3969"
           sodipodi:cx="208.21428"
           sodipodi:cy="273.43362"
           sodipodi:rx="43.92857"
           sodipodi:ry="44.642857"
           d="m 252.14285,273.43362 c 0,24.65557 -19.66749,44.64286 -43.92857,44.64286 -24.26108,0 -43.92857,-19.98729 -43.92857,-44.64286 0,-24.65556 19.66749,-44.64285 43.92857,-44.64285 24.26108,0 43.92857,19.98729 43.92857,44.64285 z"
           transform="translate(50,60)" />
        <path
           transform="translate(48.571429,6.4285714)"
           d="m 252.14285,273.43362 c 0,24.65557 -19.66749,44.64286 -43.92857,44.64286 -24.26108,0 -43.92857,-19.98729 -43.92857,-44.64286 0,-24.65556 19.66749,-44.64285 43.92857,-44.64285 24.26108,0 43.92857,19.98729 43.92857,44.64285 z"
           sodipodi:ry="44.642857"
           sodipodi:rx="43.92857"
           sodipodi:cy="273.43362"
           sodipodi:cx="208.21428"
           id="path3971"
           style="fill:#000000;fill-opacity:1;stroke:none"
           sodipodi:type="arc" />
      </g>
      <g
         id="g3773">
        <path
           sodipodi:type="arc"
           style="fill:#ffffff;fill-opacity:1;stroke:none"
           id="path3757"
           sodipodi:cx="200.71428"
           sodipodi:cy="290.93362"
           sodipodi:rx="98.571426"
           sodipodi:ry="38.57143"
           d="m 299.28571,290.93362 c 0,21.30242 -44.13194,38.57143 -98.57143,38.57143 -54.4395,0 -98.57143,-17.26901 -98.57143,-38.57143 0,-21.30241 44.13193,-38.57143 98.57143,-38.57143 54.43949,0 98.57143,17.26902 98.57143,38.57143 z" />
        <path
           sodipodi:type="arc"
           style="fill:#ffffff;fill-opacity:1;stroke:none"
           id="path3763"
           sodipodi:cx="208.21428"
           sodipodi:cy="273.43362"
           sodipodi:rx="43.92857"
           sodipodi:ry="44.642857"
           d="m 252.14285,273.43362 c 0,24.65557 -19.66749,44.64286 -43.92857,44.64286 -24.26108,0 -43.92857,-19.98729 -43.92857,-44.64286 0,-24.65556 19.66749,-44.64285 43.92857,-44.64285 24.26108,0 43.92857,19.98729 43.92857,44.64285 z"
           transform="translate(-11.428571,-2.8571429)" />
        <path
           transform="translate(-47.142857,33.571429)"
           d="m 252.14285,273.43362 c 0,24.65557 -19.66749,44.64286 -43.92857,44.64286 -24.26108,0 -43.92857,-19.98729 -43.92857,-44.64286 0,-24.65556 19.66749,-44.64285 43.92857,-44.64285 24.26108,0 43.92857,19.98729 43.92857,44.64285 z"
           sodipodi:ry="44.642857"
           sodipodi:rx="43.92857"
           sodipodi:cy="273.43362"
           sodipodi:cx="208.21428"
           id="path3765"
           style="fill:#ffffff;fill-opacity:1;stroke:none"
           sodipodi:type="arc" />
        <path
           sodipodi:type="arc"
           style="fill:#ffffff;fill-opacity:1;stroke:none"
           id="path3767"
           sodipodi:cx="208.21428"
           sodipodi:cy="273.43362"
           sodipodi:rx="43.92857"
           sodipodi:ry="44.642857"
           d="m 252.14285,273.43362 c 0,24.65557 -19.66749,44.64286 -43.92857,44.64286 -24.26108,0 -43.92857,-19.98729 -43.92857,-44.64286 0,-24.65556 19.66749,-44.64285 43.92857,-44.64285 24.26108,0 43.92857,19.98729 43.92857,44.64285 z"
           transform="translate(-4.9999998,65)" />
        <path
           transform="translate(50,60)"
           d="m 252.14285,273.43362 c 0,24.65557 -19.66749,44.64286 -43.92857,44.64286 -24.26108,0 -43.92857,-19.98729 -43.92857,-44.64286 0,-24.65556 19.66749,-44.64285 43.92857,-44.64285 24.26108,0 43.92857,19.98729 43.92857,44.64285 z"
           sodipodi:ry="44.642857"
           sodipodi:rx="43.92857"
           sodipodi:cy="273.43362"
           sodipodi:cx="208.21428"
           id="path3769"
           style="fill:#ffffff;fill-opacity:1;stroke:none"
           sodipodi:type="arc" />
        <path
           sodipodi:type="arc"
           style="fill:#ffffff;fill-opacity:1;stroke:none"
           id="path3771"
           sodipodi:cx="208.21428"
           sodipodi:cy="273.43362"
           sodipodi:rx="43.92857"
           sodipodi:ry="44.642857"
           d="m 252.14285,273.43362 c 0,24.65557 -19.66749,44.64286 -43.92857,44.64286 -24.26108,0 -43.92857,-19.98729 -43.92857,-44.64286 0,-24.65556 19.66749,-44.64285 43.92857,-44.64285 24.26108,0 43.92857,19.98729 43.92857,44.64285 z"
           transform="translate(48.571429,6.4285714)" />
      </g>
    </g>
    <rect
       inkscape:export-ydpi="65.566162"
       inkscape:export-xdpi="65.566162"
       inkscape:export-filename="C:\Users\Ajay\Downloads\eclipse-jee-juno-SR1-win32-x86_64\projects\Ludum Dare\LD38\src\res\block1.png"
       y="534.73511"
       x="405.66113"
       height="87.850189"
       width="87.850189"
       id="rect4157"
       style="fill:#0000ff;fill-opacity:1;stroke:none" />
    <g
       transform="matrix(1.4179091,0,0,1.4179091,-310.49856,-11.094624)"
       id="g4177"
       inkscape:export-filename="C:\Users\Ajay\Downloads\eclipse-jee-juno-SR1-win32-x86_64\projects\Ludum Dare\LD38\src\res\background1.png"
       inkscape:export-xdpi="143.08"
       inkscape:export-ydpi="143.08">
      <g
         transform="translate(357.85714,-4.2857143)"
         id="g4207"
         style="fill:#000000;fill-opacity:1;filter:url(#filter4221)">
        <path
           d="m 299.28571,290.93362 c 0,21.30242 -44.13194,38.57143 -98.57143,38.57143 -54.4395,0 -98.57143,-17.26901 -98.57143,-38.57143 0,-21.30241 44.13193,-38.57143 98.57143,-38.57143 54.43949,0 98.57143,17.26902 98.57143,38.57143 z"
           sodipodi:ry="38.57143"
           sodipodi:rx="98.571426"
           sodipodi:cy="290.93362"
           sodipodi:cx="200.71428"
           id="path4209"
           style="fill:#000000;fill-opacity:1;stroke:none"
           sodipodi:type="arc" />
        <path
           transform="translate(-11.428571,-2.8571429)"
           d="m 252.14285,273.43362 c 0,24.65557 -19.66749,44.64286 -43.92857,44.64286 -24.26108,0 -43.92857,-19.98729 -43.92857,-44.64286 0,-24.65556 19.66749,-44.64285 43.92857,-44.64285 24.26108,0 43.92857,19.98729 43.92857,44.64285 z"
           sodipodi:ry="44.642857"
           sodipodi:rx="43.92857"
           sodipodi:cy="273.43362"
           sodipodi:cx="208.21428"
           id="path4211"
           style="fill:#000000;fill-opacity:1;stroke:none"
           sodipodi:type="arc" />
        <path
           sodipodi:type="arc"
           style="fill:#000000;fill-opacity:1;stroke:none"
           id="path4213"
           sodipodi:cx="208.21428"
           sodipodi:cy="273.43362"
           sodipodi:rx="43.92857"
           sodipodi:ry="44.642857"
           d="m 252.14285,273.43362 c 0,24.65557 -19.66749,44.64286 -43.92857,44.64286 -24.26108,0 -43.92857,-19.98729 -43.92857,-44.64286 0,-24.65556 19.66749,-44.64285 43.92857,-44.64285 24.26108,0 43.92857,19.98729 43.92857,44.64285 z"
           transform="translate(-47.142857,33.571429)" />
        <path
           transform="translate(33.98298,39.432445)"
           d="m 252.14285,273.43362 c 0,24.65557 -19.66749,44.64286 -43.92857,44.64286 -24.26108,0 -43.92857,-19.98729 -43.92857,-44.64286 0,-24.65556 19.66749,-44.64285 43.92857,-44.64285 24.26108,0 43.92857,19.98729 43.92857,44.64285 z"
           sodipodi:ry="44.642857"
           sodipodi:rx="43.92857"
           sodipodi:cy="273.43362"
           sodipodi:cx="208.21428"
           id="path4215"
           style="fill:#000000;fill-opacity:1;stroke:none"
           sodipodi:type="arc" />
        <path
           sodipodi:type="arc"
           style="fill:#000000;fill-opacity:1;stroke:none"
           id="path4217"
           sodipodi:cx="208.21428"
           sodipodi:cy="273.43362"
           sodipodi:rx="43.92857"
           sodipodi:ry="44.642857"
           d="m 252.14285,273.43362 c 0,24.65557 -19.66749,44.64286 -43.92857,44.64286 -24.26108,0 -43.92857,-19.98729 -43.92857,-44.64286 0,-24.65556 19.66749,-44.64285 43.92857,-44.64285 24.26108,0 43.92857,19.98729 43.92857,44.64285 z"
           transform="translate(18.086512,-8.0123255)" />
        <path
           transform="translate(-5.6417406,57.929687)"
           d="m 252.14285,273.43362 c 0,24.65557 -19.66749,44.64286 -43.92857,44.64286 -24.26108,0 -43.92857,-19.98729 -43.92857,-44.64286 0,-24.65556 19.66749,-44.64285 43.92857,-44.64285 24.26108,0 43.92857,19.98729 43.92857,44.64285 z"
           sodipodi:ry="44.642857"
           sodipodi:rx="43.92857"
           sodipodi:cy="273.43362"
           sodipodi:cx="208.21428"
           id="path4219"
           style="fill:#000000;fill-opacity:1;stroke:none"
           sodipodi:type="arc" />
      </g>
      <g
         id="g4193"
         transform="translate(357.85714,-4.2857143)">
        <path
           sodipodi:type="arc"
           style="fill:#ffffff;fill-opacity:1;stroke:none"
           id="path4195"
           sodipodi:cx="200.71428"
           sodipodi:cy="290.93362"
           sodipodi:rx="98.571426"
           sodipodi:ry="38.57143"
           d="m 299.28571,290.93362 c 0,21.30242 -44.13194,38.57143 -98.57143,38.57143 -54.4395,0 -98.57143,-17.26901 -98.57143,-38.57143 0,-21.30241 44.13193,-38.57143 98.57143,-38.57143 54.43949,0 98.57143,17.26902 98.57143,38.57143 z" />
        <path
           sodipodi:type="arc"
           style="fill:#ffffff;fill-opacity:1;stroke:none"
           id="path4197"
           sodipodi:cx="208.21428"
           sodipodi:cy="273.43362"
           sodipodi:rx="43.92857"
           sodipodi:ry="44.642857"
           d="m 252.14285,273.43362 c 0,24.65557 -19.66749,44.64286 -43.92857,44.64286 -24.26108,0 -43.92857,-19.98729 -43.92857,-44.64286 0,-24.65556 19.66749,-44.64285 43.92857,-44.64285 24.26108,0 43.92857,19.98729 43.92857,44.64285 z"
           transform="translate(-11.428571,-2.8571429)" />
        <path
           transform="translate(-47.142857,33.571429)"
           d="m 252.14285,273.43362 c 0,24.65557 -19.66749,44.64286 -43.92857,44.64286 -24.26108,0 -43.92857,-19.98729 -43.92857,-44.64286 0,-24.65556 19.66749,-44.64285 43.92857,-44.64285 24.26108,0 43.92857,19.98729 43.92857,44.64285 z"
           sodipodi:ry="44.642857"
           sodipodi:rx="43.92857"
           sodipodi:cy="273.43362"
           sodipodi:cx="208.21428"
           id="path4199"
           style="fill:#ffffff;fill-opacity:1;stroke:none"
           sodipodi:type="arc" />
        <path
           sodipodi:type="arc"
           style="fill:#ffffff;fill-opacity:1;stroke:none"
           id="path4201"
           sodipodi:cx="208.21428"
           sodipodi:cy="273.43362"
           sodipodi:rx="43.92857"
           sodipodi:ry="44.642857"
           d="m 252.14285,273.43362 c 0,24.65557 -19.66749,44.64286 -43.92857,44.64286 -24.26108,0 -43.92857,-19.98729 -43.92857,-44.64286 0,-24.65556 19.66749,-44.64285 43.92857,-44.64285 24.26108,0 43.92857,19.98729 43.92857,44.64285 z"
           transform="translate(33.98298,39.432445)" />
        <path
           transform="translate(18.086512,-8.0123255)"
           d="m 252.14285,273.43362 c 0,24.65557 -19.66749,44.64286 -43.92857,44.64286 -24.26108,0 -43.92857,-19.98729 -43.92857,-44.64286 0,-24.65556 19.66749,-44.64285 43.92857,-44.64285 24.26108,0 43.92857,19.98729 43.92857,44.64285 z"
           sodipodi:ry="44.642857"
           sodipodi:rx="43.92857"
           sodipodi:cy="273.43362"
           sodipodi:cx="208.21428"
           id="path4203"
           style="fill:#ffffff;fill-opacity:1;stroke:none"
           sodipodi:type="arc" />
        <path
           sodipodi:type="arc"
           style="fill:#ffffff;fill-opacity:1;stroke:none"
           id="path4205"
           sodipodi:cx="208.21428"
           sodipodi:cy="273.43362"
           sodipodi:rx="43.92857"
           sodipodi:ry="44.642857"
           d="m 252.14285,273.43362 c 0,24.65557 -19.66749,44.64286 -43.92857,44.64286 -24.26108,0 -43.92857,-19.98729 -43.92857,-44.64286 0,-24.65556 19.66749,-44.64285 43.92857,-44.64285 24.26108,0 43.92857,19.98729 43.92857,44.64285 z"
           transform="translate(-5.6417406,57.929687)" />
      </g>
    </g>
    <rect
       style="fill:#000000;fill-opacity:1;stroke:none"
       id="rect4159"
       width="87.850189"
       height="87.850189"
       x="518.48834"
       y="534.73511"
       inkscape:export-filename="C:\Users\Ajay\Downloads\eclipse-jee-juno-SR1-win32-x86_64\projects\Ludum Dare\LD38\src\res\block-1.png"
       inkscape:export-xdpi="65.566162"
       inkscape:export-ydpi="65.566162" />
    <g
       id="g4171"
       transform="translate(-425.47051,7.7514871)">
      <rect
         y="210.03392"
         x="238.57353"
         height="221.34802"
         width="221.34802"
         id="rect4163"
         style="fill:#ffffff;fill-opacity:0.6719577;stroke:none" />
      <rect
         style="fill:#ff0000;fill-opacity:1;stroke:none"
         id="rect4165"
         width="42.202541"
         height="42.202541"
         x="273.0246"
         y="286.6875"
         inkscape:export-filename="C:\Users\Ajay\Downloads\eclipse-jee-juno-SR1-win32-x86_64\projects\Ludum Dare\LD38\src\res\block0.png"
         inkscape:export-xdpi="65.566162"
         inkscape:export-ydpi="65.566162" />
      <rect
         inkscape:export-ydpi="65.566162"
         inkscape:export-xdpi="65.566162"
         inkscape:export-filename="C:\Users\Ajay\Downloads\eclipse-jee-juno-SR1-win32-x86_64\projects\Ludum Dare\LD38\src\res\block1.png"
         y="390.90195"
         x="419.44153"
         height="39.618713"
         width="39.618713"
         id="rect4167"
         style="fill:#0000ff;fill-opacity:1;stroke:none" />
      <rect
         style="fill:#000000;fill-opacity:1;stroke:none"
         id="rect4169"
         width="37.89616"
         height="37.89616"
         x="366.90372"
         y="227.25945"
         inkscape:export-filename="C:\Users\Ajay\Downloads\eclipse-jee-juno-SR1-win32-x86_64\projects\Ludum Dare\LD38\src\res\block-1.png"
         inkscape:export-xdpi="65.566162"
         inkscape:export-ydpi="65.566162" />
    </g>
  </g>
</svg>
